# xmcd
#
# Track frame offsets:
#	150
#	10589
#	21736
#	33790
#	44104
#	54495
#	66332
#	78001
#	86730
#	96066
#	107392
#	116046
#	129242
#	139138
#	150372
#	162576
#	174673
#	187739
#	211171
#	222100
#	232169
#	241756
#
# Disc length: 3376
#
# Revision: 1
# Processed by: cddbd v1.5.1PL0 Copyright (c) Steve Scherf et al.
# Submitted via: ExactAudioCopy v0.95a5
# Normalized: r0:DSWAP,TDELIM( - )
#
DISCID=200d2e16
DTITLE=Various Artist - Oldies Mix I
DYEAR=2000
DGENRE=A Cappella
TTITLE0=Bill Haley and His Comets - Rock Around The Clock
TTITLE1=Chuck Berry - Roll Over Beethoven
TTITLE2=Tony Sheridan and The Beat Brothers - Kansas City
TTITLE3=Carl Perkins - Blue Suede Shoes
TTITLE4=Dale Hawkins - Suzie Q
TTITLE5=Tony Sheridan and The Beat Brothers - Let´S Dance
TTITLE6=Danny and The Juniors - At The Top
TTITLE7=Eddie Cochran - C´Mon Everybody
TTITLE8=Tony Sheridan and The Beat Brothers - Ready Teddy
TTITLE9=Fabian - Tiger
TTITLE10=Jerry Jee Lewis - Great Balls Of Fire
TTITLE11=Tony Sheridan and The Beat Brothers - Ruby Baby
TTITLE12=Johnny and The Hurricanes - Red River Rock
TTITLE13=Little Richard - Lucille
TTITLE14=Tony Sheridan and The Beat Brothers - What I´D Say
TTITLE15=Chuck Berry - Johnny B. Goode
TTITLE16=Jerry Jee Lewis - Whole Lotta Shakin´ Goin´ On
TTITLE17=Tony Sheridan and The Beat Brothers - Yaya
TTITLE18=Little Richard - Tutti Frutti
TTITLE19=Roy Orbison - Ooby Dooby
TTITLE20=Shakin´ Stevens and The Sunsets - Rock Around With Ollie Vee
TTITLE21=The Beatles - Rockin´ Around The Christmas Tree
EXTD=
EXTT0=
EXTT1=
EXTT2=
EXTT3=
EXTT4=
EXTT5=
EXTT6=
EXTT7=
EXTT8=
EXTT9=
EXTT10=
EXTT11=
EXTT12=
EXTT13=
EXTT14=
EXTT15=
EXTT16=
EXTT17=
EXTT18=
EXTT19=
EXTT20=
EXTT21=
PLAYORDER=
